# xmcd
#
# Track frame offsets: 
#        150
#        19060
#        35273
#        56050
#        78404
#        95192
#        112558
#        132235
#
# Disc length: 2018 seconds
#
# Revision: 4
# Processed by: cddbd v1.5.2PL0 Copyright (c) Steve Scherf et al.
# Submitted via: ExactAudioCopy v1.3
#
DISCID=5d07e008
DTITLE=Goose house - Milk
DYEAR=2015
DGENRE=JPop
TTITLE0=光るなら
TTITLE1=オトノナルホウヘ→
TTITLE2=恋するMerry-Go-Round
TTITLE3=コバルトの街
TTITLE4=Perfume
TTITLE5=Pop Up!
TTITLE6=L.I.P's
TTITLE7=笑ったままで
EXTD=
EXTT0=
EXTT1=
EXTT2=
EXTT3=
EXTT4=
EXTT5=
EXTT6=
EXTT7=
PLAYORDER=
